# Blender v2.79 (sub 6) OBJ File: 'pallet_05.blend'
# www.blender.org
mtllib pallet.mtl
o stack-object_stack-cube
v 0.000000 0.146000 0.000000
v 0.000000 0.291000 0.000000
v 0.000000 0.146000 -1.000000
v 0.000000 0.291000 -1.000000
v 1.000000 0.146000 0.000000
v 1.000000 0.291000 0.000000
v 1.000000 0.146000 -1.000000
v 1.000000 0.291000 -1.000000
vt 0.126774 5.207330
vt 0.126574 0.000498
vt 0.305248 0.000698
vt 0.305448 5.207530
vt 0.131881 0.005338
vt 0.131881 5.203898
vt 0.307937 5.203898
vt 0.307937 0.005338
vt 0.309716 0.004029
vt 0.309716 5.206681
vt 0.133660 5.206681
vt 0.133660 0.004029
vt 0.304849 0.001024
vt 0.304849 5.203677
vt 0.128793 5.203677
vt 0.128793 0.001024
vt 0.307937 5.203788
vt 0.129272 5.203484
vt 0.130729 -0.000863
vt 0.307937 -0.000863
vt 5.008251 -0.003804
vt 0.002842 -0.003804
vt 0.002842 -10.869190
vt 5.008251 -10.869190
vn -1.0000 0.0000 0.0000
vn 0.0000 0.0000 -1.0000
vn 1.0000 0.0000 0.0000
vn 0.0000 0.0000 1.0000
vn 0.0000 -1.0000 0.0000
vn 0.0000 1.0000 0.0000
usemtl stack-mat
s off
f 1/1/1 2/2/1 4/3/1 3/4/1
f 3/5/2 4/6/2 8/7/2 7/8/2
f 7/9/3 8/10/3 6/11/3 5/12/3
f 5/13/4 6/14/4 2/15/4 1/16/4
f 3/17/5 7/18/5 5/19/5 1/20/5
f 8/21/6 4/22/6 2/23/6 6/24/6
o pallet-object_Cube.001
v 0.000000 0.000000 0.000000
v 0.000000 0.145000 0.000000
v 0.000000 0.000000 -1.000000
v 0.000000 0.145000 -1.000000
v 1.000000 0.000000 0.000000
v 1.000000 0.145000 0.000000
v 1.000000 0.000000 -1.000000
v 1.000000 0.145000 -1.000000
vt 0.000200 0.999800
vt -0.000000 0.502546
vt 0.497255 0.502745
vt 0.497454 1.000000
vt 0.505364 0.502264
vt 0.505364 0.620278
vt 1.000000 0.620278
vt 1.000000 0.502264
vt 0.998691 0.500954
vt 0.998691 0.623061
vt 0.504055 0.623061
vt 0.504055 0.500954
vt 1.000000 0.502264
vt 1.000000 0.624371
vt 0.505364 0.624371
vt 0.505364 0.502264
vt 1.000000 0.495074
vt 0.502755 0.494769
vt 0.504212 0.000000
vt 1.000000 0.000000
vt 0.497255 1.000000
vt 0.000000 1.000000
vt 0.000000 0.507962
vt 0.497255 0.507962
vn -1.0000 0.0000 0.0000
vn 0.0000 0.0000 -1.0000
vn 1.0000 0.0000 0.0000
vn 0.0000 0.0000 1.0000
vn 0.0000 -1.0000 0.0000
vn 0.0000 1.0000 0.0000
usemtl pallet-mat
s off
f 9/25/7 10/26/7 12/27/7 11/28/7
f 11/29/8 12/30/8 16/31/8 15/32/8
f 15/33/9 16/34/9 14/35/9 13/36/9
f 13/37/10 14/38/10 10/39/10 9/40/10
f 11/41/11 15/42/11 13/43/11 9/44/11
f 16/45/12 12/46/12 10/47/12 14/48/12
