# Blender v2.79 (sub 6) OBJ File: 'pallet_10.blend'
# www.blender.org
mtllib pallet.mtl
o stack-object_stack-cube
v 0.000000 0.146000 0.000000
v 0.000000 0.645000 0.000000
v 0.000000 0.146000 -1.000000
v 0.000000 0.645000 -1.000000
v 1.000000 0.146000 0.000000
v 1.000000 0.645000 0.000000
v 1.000000 0.146000 -1.000000
v 1.000000 0.645000 -1.000000
vt 1.000000 0.062263
vt 1.000000 0.916338
vt 0.944716 0.916058
vt 0.944717 0.061983
vt 0.999838 0.062101
vt 0.999838 0.916176
vt 0.944554 0.915896
vt 0.944554 0.061821
vt 0.999838 0.062101
vt 0.999838 0.916176
vt 0.944554 0.915896
vt 0.944554 0.061821
vt 0.999838 0.062101
vt 0.999838 0.916176
vt 0.944554 0.915896
vt 0.944554 0.061821
vt 0.940833 0.068522
vt 0.940833 0.914224
vt 0.367407 0.913768
vt 0.367407 0.068066
vt 0.800420 0.910532
vt 0.367407 0.913768
vt 0.367407 0.068066
vt 0.800420 0.064830
vn -1.0000 0.0000 0.0000
vn 0.0000 0.0000 -1.0000
vn 1.0000 0.0000 0.0000
vn 0.0000 0.0000 1.0000
vn 0.0000 -1.0000 0.0000
vn 0.0000 1.0000 0.0000
usemtl pallet_combined-mat
s off
f 1/1/1 2/2/1 4/3/1 3/4/1
f 3/5/2 4/6/2 8/7/2 7/8/2
f 7/9/3 8/10/3 6/11/3 5/12/3
f 5/13/4 6/14/4 2/15/4 1/16/4
f 3/17/5 7/18/5 5/19/5 1/20/5
f 8/21/6 4/22/6 2/23/6 6/24/6
o pallet-object_Cube.001
v 0.000000 0.000000 0.000000
v 0.000000 0.145000 0.000000
v 0.000000 0.000000 -1.000000
v 0.000000 0.145000 -1.000000
v 1.000000 0.000000 0.000000
v 1.000000 0.145000 0.000000
v 1.000000 0.000000 -1.000000
v 1.000000 0.145000 -1.000000
vt 0.201649 0.604233
vt 0.201364 0.503278
vt 0.366436 0.503543
vt 0.366811 0.605046
vt 0.201663 0.504051
vt 0.201665 0.604183
vt 0.366650 0.604872
vt 0.366662 0.504367
vt 0.366409 0.504114
vt 0.366868 0.604409
vt 0.201670 0.604214
vt 0.201462 0.503665
vt 0.366662 0.504367
vt 0.366650 0.604191
vt 0.201665 0.604196
vt 0.201293 0.504051
vt 0.366838 0.497192
vt 0.199677 0.497556
vt 0.199670 0.085345
vt 0.367161 0.085124
vt 0.198749 0.915190
vt 0.034203 0.915190
vt 0.034265 0.501179
vt 0.198811 0.501179
vn -1.0000 0.0000 0.0000
vn 0.0000 0.0000 -1.0000
vn 1.0000 0.0000 0.0000
vn 0.0000 0.0000 1.0000
vn 0.0000 -1.0000 0.0000
vn 0.0000 1.0000 0.0000
usemtl pallet_combined-mat
s off
f 9/25/7 10/26/7 12/27/7 11/28/7
f 11/29/8 12/30/8 16/31/8 15/32/8
f 15/33/9 16/34/9 14/35/9 13/36/9
f 13/37/10 14/38/10 10/39/10 9/40/10
f 11/41/11 15/42/11 13/43/11 9/44/11
f 16/45/12 12/46/12 10/47/12 14/48/12
