# Blender v2.79 (sub 6) OBJ File: 'pallet_00.blend'
# www.blender.org
mtllib pallet.mtl
o Cube
v 0.000000 0.000000 0.000000
v 0.000000 0.145000 0.000000
v 0.000000 0.000000 -1.000000
v 0.000000 0.145000 -1.000000
v 1.000000 0.000000 0.000000
v 1.000000 0.145000 0.000000
v 1.000000 0.000000 -1.000000
v 1.000000 0.145000 -1.000000
vt 0.000200 0.999800
vt -0.000000 0.502546
vt 0.497255 0.502745
vt 0.497454 1.000000
vt 0.505364 0.502264
vt 0.505364 0.620278
vt 1.000000 0.620278
vt 1.000000 0.502264
vt 0.998691 0.500954
vt 0.998691 0.623061
vt 0.504055 0.623061
vt 0.504055 0.500954
vt 1.000000 0.502264
vt 1.000000 0.624371
vt 0.505364 0.624371
vt 0.505364 0.502264
vt 1.000000 0.495074
vt 0.502755 0.494769
vt 0.504212 0.000000
vt 1.000000 0.000000
vt 0.497255 1.000000
vt 0.000000 1.000000
vt 0.000000 0.507962
vt 0.497255 0.507962
vn -1.0000 0.0000 0.0000
vn 0.0000 0.0000 -1.0000
vn 1.0000 0.0000 0.0000
vn 0.0000 0.0000 1.0000
vn 0.0000 -1.0000 0.0000
vn 0.0000 1.0000 0.0000
usemtl Material.001
s off
f 1/1/1 2/2/1 4/3/1 3/4/1
f 3/5/2 4/6/2 8/7/2 7/8/2
f 7/9/3 8/10/3 6/11/3 5/12/3
f 5/13/4 6/14/4 2/15/4 1/16/4
f 3/17/5 7/18/5 5/19/5 1/20/5
f 8/21/6 4/22/6 2/23/6 6/24/6
