# Blender v2.79 (sub 6) OBJ File: 'dollar_05.5.blend'
# www.blender.org
mtllib dollar-stack.mtl
o Cube.005_Cube
v 1.000000 0.200000 -0.450000
v 1.000000 0.200000 0.000000
v 0.000000 0.200000 -0.000000
v 0.000000 0.200000 -0.450000
v 1.000000 0.250000 -0.450000
v 1.000000 0.250000 0.000000
v 0.000000 0.250000 -0.000000
v 0.000000 0.250000 -0.450000
vt 0.992218 0.000000
vt 0.992218 0.644940
vt 0.000000 0.644940
vt 0.000000 0.000000
vt 0.992218 0.644940
vt -0.000000 0.644940
vt 0.000000 0.000000
vt 0.992218 0.000000
vt 0.993774 0.684944
vt 0.993774 1.000000
vt 0.000000 1.000000
vt 0.000000 0.684944
vt 0.991545 0.675334
vt 0.991545 1.000000
vt 0.000000 1.000000
vt 0.000000 0.675334
vt -0.000000 1.000000
vt -0.000000 0.681493
vt 0.993774 0.681492
vt 0.993774 1.000000
vt 0.991538 0.677509
vt 0.991538 1.000000
vt 0.000000 1.000000
vt -0.000000 0.677507
vn 0.0000 -1.0000 -0.0000
vn 0.0000 1.0000 0.0000
vn 1.0000 0.0000 0.0000
vn -0.0000 -0.0000 1.0000
vn -1.0000 -0.0000 -0.0000
vn 0.0000 0.0000 -1.0000
usemtl Material
s off
f 1/1/1 2/2/1 3/3/1 4/4/1
f 5/5/2 8/6/2 7/7/2 6/8/2
f 1/9/3 5/10/3 6/11/3 2/12/3
f 2/13/4 6/14/4 7/15/4 3/16/4
f 3/17/5 7/18/5 8/19/5 4/20/5
f 5/21/6 1/22/6 4/23/6 8/24/6
o Cube.004_Cube
v 0.956975 0.150000 -0.535443
v 0.996195 0.150000 -0.087156
v -0.000000 0.150000 -0.000000
v -0.039220 0.150000 -0.448288
v 0.956975 0.200000 -0.535443
v 0.996194 0.200000 -0.087155
v -0.000000 0.200000 -0.000000
v -0.039220 0.200000 -0.448288
vt 0.992218 0.000000
vt 0.992218 0.644940
vt 0.000000 0.644940
vt 0.000000 0.000000
vt 0.992218 0.644940
vt -0.000000 0.644940
vt 0.000000 0.000000
vt 0.992218 0.000000
vt 0.993774 0.684944
vt 0.993774 1.000000
vt 0.000000 1.000000
vt 0.000000 0.684944
vt 0.991545 0.675334
vt 0.991545 1.000000
vt 0.000000 1.000000
vt 0.000000 0.675334
vt -0.000000 1.000000
vt -0.000000 0.681493
vt 0.993774 0.681492
vt 0.993774 1.000000
vt 0.991538 0.677509
vt 0.991538 1.000000
vt 0.000000 1.000000
vt -0.000000 0.677507
vn -0.0000 -1.0000 -0.0000
vn 0.0000 1.0000 0.0000
vn 0.9962 0.0000 -0.0872
vn 0.0872 -0.0000 0.9962
vn -0.9962 -0.0000 0.0872
vn -0.0872 0.0000 -0.9962
usemtl Material
s off
f 9/25/7 10/26/7 11/27/7 12/28/7
f 13/29/8 16/30/8 15/31/8 14/32/8
f 9/33/9 13/34/9 14/35/9 10/36/9
f 10/37/10 14/38/10 15/39/10 11/40/10
f 11/41/11 15/42/11 16/43/11 12/44/11
f 13/45/12 9/46/12 12/47/12 16/48/12
o Cube.003_Cube
v 1.000000 0.100000 -0.450000
v 1.000000 0.100000 0.000000
v 0.000000 0.100000 -0.000000
v 0.000000 0.100000 -0.450000
v 1.000000 0.150000 -0.450000
v 1.000000 0.150000 0.000000
v 0.000000 0.150000 -0.000000
v 0.000000 0.150000 -0.450000
vt 0.992218 0.000000
vt 0.992218 0.644940
vt 0.000000 0.644940
vt 0.000000 0.000000
vt 0.992218 0.644940
vt -0.000000 0.644940
vt 0.000000 0.000000
vt 0.992218 0.000000
vt 0.993774 0.684944
vt 0.993774 1.000000
vt 0.000000 1.000000
vt 0.000000 0.684944
vt 0.991545 0.675334
vt 0.991545 1.000000
vt 0.000000 1.000000
vt 0.000000 0.675334
vt -0.000000 1.000000
vt -0.000000 0.681493
vt 0.993774 0.681492
vt 0.993774 1.000000
vt 0.991538 0.677509
vt 0.991538 1.000000
vt 0.000000 1.000000
vt -0.000000 0.677507
vn 0.0000 -1.0000 -0.0000
vn -0.0000 1.0000 0.0000
vn 1.0000 0.0000 0.0000
vn -0.0000 -0.0000 1.0000
vn -1.0000 -0.0000 -0.0000
vn 0.0000 0.0000 -1.0000
usemtl Material
s off
f 17/49/13 18/50/13 19/51/13 20/52/13
f 21/53/14 24/54/14 23/55/14 22/56/14
f 17/57/15 21/58/15 22/59/15 18/60/15
f 18/61/16 22/62/16 23/63/16 19/64/16
f 19/65/17 23/66/17 24/67/17 20/68/17
f 21/69/18 17/70/18 20/71/18 24/72/18
o Cube.002_Cube
v 1.035415 0.050000 -0.361132
v 0.996195 0.050000 0.087156
v 0.000000 0.050000 -0.000000
v 0.039221 0.050000 -0.448288
v 1.035415 0.100000 -0.361132
v 0.996194 0.100000 0.087156
v 0.000000 0.100000 -0.000000
v 0.039220 0.100000 -0.448288
vt 0.992218 0.000000
vt 0.992218 0.644940
vt 0.000000 0.644940
vt 0.000000 0.000000
vt 0.992218 0.644940
vt -0.000000 0.644940
vt 0.000000 0.000000
vt 0.992218 0.000000
vt 0.993774 0.684944
vt 0.993774 1.000000
vt 0.000000 1.000000
vt 0.000000 0.684944
vt 0.991545 0.675334
vt 0.991545 1.000000
vt 0.000000 1.000000
vt 0.000000 0.675334
vt -0.000000 1.000000
vt -0.000000 0.681493
vt 0.993774 0.681492
vt 0.993774 1.000000
vt 0.991538 0.677509
vt 0.991538 1.000000
vt 0.000000 1.000000
vt -0.000000 0.677507
vn 0.0000 -1.0000 -0.0000
vn -0.0000 1.0000 0.0000
vn 0.9962 0.0000 0.0872
vn -0.0872 -0.0000 0.9962
vn -0.9962 -0.0000 -0.0872
vn 0.0872 0.0000 -0.9962
usemtl Material
s off
f 25/73/19 26/74/19 27/75/19 28/76/19
f 29/77/20 32/78/20 31/79/20 30/80/20
f 25/81/21 29/82/21 30/83/21 26/84/21
f 26/85/22 30/86/22 31/87/22 27/88/22
f 27/89/23 31/90/23 32/91/23 28/92/23
f 29/93/24 25/94/24 28/95/24 32/96/24
o Cube.001_Cube
v 1.000000 0.000000 -0.450000
v 1.000000 0.000000 0.000000
v 0.000000 0.000000 -0.000000
v 0.000000 0.000000 -0.450000
v 1.000000 0.050000 -0.450000
v 1.000000 0.050000 0.000000
v 0.000000 0.050000 -0.000000
v 0.000000 0.050000 -0.450000
vt 0.992218 0.000000
vt 0.992218 0.644940
vt 0.000000 0.644940
vt 0.000000 0.000000
vt 0.992218 0.644940
vt -0.000000 0.644940
vt 0.000000 0.000000
vt 0.992218 0.000000
vt 0.993774 0.684944
vt 0.993774 1.000000
vt 0.000000 1.000000
vt 0.000000 0.684944
vt 0.991545 0.675334
vt 0.991545 1.000000
vt 0.000000 1.000000
vt 0.000000 0.675334
vt -0.000000 1.000000
vt -0.000000 0.681493
vt 0.993774 0.681492
vt 0.993774 1.000000
vt 0.991538 0.677509
vt 0.991538 1.000000
vt 0.000000 1.000000
vt -0.000000 0.677507
vn 0.0000 -1.0000 -0.0000
vn -0.0000 1.0000 0.0000
vn 1.0000 0.0000 0.0000
vn -0.0000 -0.0000 1.0000
vn -1.0000 -0.0000 -0.0000
vn 0.0000 0.0000 -1.0000
usemtl Material
s off
f 33/97/25 34/98/25 35/99/25 36/100/25
f 37/101/26 40/102/26 39/103/26 38/104/26
f 33/105/27 37/106/27 38/107/27 34/108/27
f 34/109/28 38/110/28 39/111/28 35/112/28
f 35/113/29 39/114/29 40/115/29 36/116/29
f 37/117/30 33/118/30 36/119/30 40/120/30
o Cube
v 1.000000 0.000000 -0.450000
v 1.000000 0.000000 0.000000
v 0.000000 0.000000 -0.000000
v 0.000000 0.000000 -0.450000
v 1.000000 0.050000 -0.450000
v 1.000000 0.050000 0.000000
v 0.000000 0.050000 -0.000000
v 0.000000 0.050000 -0.450000
vt 0.992218 0.000000
vt 0.992218 0.644940
vt 0.000000 0.644940
vt 0.000000 0.000000
vt 0.992218 0.644940
vt -0.000000 0.644940
vt 0.000000 0.000000
vt 0.992218 0.000000
vt 0.993774 0.684944
vt 0.993774 1.000000
vt 0.000000 1.000000
vt 0.000000 0.684944
vt 0.991545 0.675334
vt 0.991545 1.000000
vt 0.000000 1.000000
vt 0.000000 0.675334
vt -0.000000 1.000000
vt -0.000000 0.681493
vt 0.993774 0.681492
vt 0.993774 1.000000
vt 0.991538 0.677509
vt 0.991538 1.000000
vt 0.000000 1.000000
vt -0.000000 0.677507
vn 0.0000 -1.0000 -0.0000
vn -0.0000 1.0000 0.0000
vn 1.0000 0.0000 0.0000
vn -0.0000 -0.0000 1.0000
vn -1.0000 -0.0000 -0.0000
vn 0.0000 0.0000 -1.0000
usemtl Material
s off
f 41/121/31 42/122/31 43/123/31 44/124/31
f 45/125/32 48/126/32 47/127/32 46/128/32
f 41/129/33 45/130/33 46/131/33 42/132/33
f 42/133/34 46/134/34 47/135/34 43/136/34
f 43/137/35 47/138/35 48/139/35 44/140/35
f 45/141/36 41/142/36 44/143/36 48/144/36
o Rubberband_Cube.001
v 0.320015 -0.030000 0.063339
v 0.320015 0.290000 0.063339
v 0.320015 -0.030000 -0.520588
v 0.320015 0.290000 -0.520588
v 0.470015 -0.030000 0.063339
v 0.470015 0.290000 0.063339
v 0.470015 -0.030000 -0.520588
v 0.470015 0.290000 -0.520588
v 0.470015 0.000000 0.029589
v 0.320015 0.000000 0.029589
v 0.470015 0.000000 -0.486838
v 0.320015 0.000000 -0.482988
v 0.470015 0.260000 0.029589
v 0.320015 0.260000 0.029589
v 0.320015 0.000000 -0.486838
v 0.470015 0.260000 -0.486838
v 0.320015 0.260000 -0.486838
v 0.470015 0.000000 0.029589
v 0.320015 -0.030000 -0.220297
v 0.320015 0.290000 -0.220296
v 0.470015 -0.030000 -0.220297
v 0.470015 0.290000 -0.220297
v 0.470015 0.000000 -0.220297
v 0.320015 0.000000 -0.218372
v 0.470015 0.260000 -0.220297
v 0.320015 0.260000 -0.220297
v 0.320015 -0.030000 -0.048659
v 0.320015 0.290000 -0.391935
v 0.470015 -0.030000 -0.391935
v 0.470015 0.290000 -0.048659
v 0.470015 0.000000 -0.375060
v 0.320015 0.000000 -0.372172
v 0.470015 0.260000 -0.375060
v 0.320015 0.260000 -0.375060
v 0.320015 -0.030000 -0.391935
v 0.320015 0.290000 -0.048659
v 0.470015 -0.030000 -0.048659
v 0.470015 0.290000 -0.391935
v 0.470015 0.000000 -0.065534
v 0.320015 0.000000 -0.064571
v 0.470015 0.260000 -0.065534
v 0.320015 0.260000 -0.065534
v 0.320015 0.150000 0.063339
v 0.320015 0.150000 -0.520588
v 0.470015 0.150000 -0.520588
v 0.470015 0.150000 0.063339
v 0.470015 0.148596 -0.486839
v 0.320015 0.151404 -0.486838
v 0.470015 0.151404 0.029589
v 0.320015 0.148596 0.029589
vt 0.737101 1.000000
vt 0.975738 0.825861
vt 0.978786 0.868646
vt 0.981853 1.000000
vt 0.982802 1.000000
vt 0.735902 1.000000
vt 0.859602 0.868495
vt 0.976228 0.866731
vt 0.983037 1.000000
vt 0.981202 1.000000
vt 0.000000 0.845523
vt 0.985356 0.844304
vt 0.985356 1.000000
vt 0.000000 1.000000
vt 0.735538 1.000000
vt 0.859709 0.867933
vt 0.976371 0.867616
vt 0.980717 1.000000
vt 0.737439 1.000000
vt 0.978801 0.924241
vt 0.982535 1.000000
vt 0.982917 1.000000
vt 0.000000 0.921421
vt 0.985063 0.921421
vt 0.985063 1.000000
vt 0.000000 1.000000
vt 0.985063 0.764262
vt -0.000000 0.764262
vt -0.000000 0.685682
vt 0.985063 0.685682
vt 0.985356 0.839458
vt 0.000000 0.840678
vt 0.000000 0.684981
vt 0.985356 0.684981
vt 0.985063 0.921421
vt -0.000000 0.921421
vt -0.000000 0.842841
vt 0.985063 0.842841
vt 0.000000 0.764262
vt 0.985063 0.764262
vt 0.985063 0.842841
vt 0.000000 0.842841
vt 0.246483 1.000000
vt 0.971335 0.772722
vt 0.975068 0.848481
vt 0.491961 1.000000
vt 0.245179 1.000000
vt 0.626385 0.868567
vt 0.743047 0.868250
vt 0.490358 1.000000
vt 0.000000 0.844790
vt 0.000000 0.767185
vt 0.000000 1.000000
vt 0.985063 0.689581
vt 0.985063 0.767185
vt 0.985063 0.844790
vt 0.985063 0.922395
vt 0.986607 0.689189
vt 0.000000 1.000000
vt 0.000000 0.922395
vt 0.245301 1.000000
vt 0.626349 0.872023
vt 0.742975 0.870259
vt 0.490601 1.000000
vt 0.245700 0.999999
vt 0.969642 0.740290
vt 0.972690 0.783076
vt 0.491401 1.000000
vt 0.000000 0.845498
vt 0.000000 0.690996
vt 0.495170 0.689663
vt 0.730882 0.693584
vt 0.000000 0.846212
vt 0.000000 0.692425
vt 0.493509 0.685506
vt 0.501616 0.779646
vt 0.985063 0.844790
vt 0.985063 0.922395
vt 0.986607 0.689189
vt 0.000000 1.000000
vt 0.000000 0.922395
vt 0.000000 0.844790
vt 0.000000 0.767185
vt 0.000000 1.000000
vt 0.985063 0.689581
vt 0.985063 0.767185
vt 0.000000 0.844595
vt 0.986607 0.844595
vt 0.000000 0.844595
vt 0.502774 0.777587
vt 0.509723 0.868885
vt 0.000000 1.000000
vt 0.000513 0.844931
vt 0.730706 0.690612
vt 0.967601 0.696963
vt 0.001006 1.000000
vt 0.000000 0.685682
vt 0.985063 0.685682
vt 0.985063 1.000000
vt -0.000000 1.000000
vt 0.000020 0.689861
vt 0.493810 0.684262
vt 0.000000 0.689190
vt 0.495825 0.686290
vt 0.000000 1.000000
vt 0.509723 0.873786
vt 0.966594 0.697505
vt 0.985343 1.000000
vt 0.000000 0.996374
vt 0.985356 0.993935
vt 0.000014 0.684981
vt 0.985356 0.688607
vt 0.000000 0.691046
vt 0.986607 0.844595
vt 0.000000 0.844595
vn -1.0000 0.0000 0.0000
vn 1.0000 -0.0000 0.0000
vn 0.0000 -0.0000 1.0000
vn 0.0000 1.0000 0.0000
vn 0.0000 -1.0000 0.0000
vn -0.0000 0.0000 -1.0000
vn 0.0000 0.0128 0.9999
usemtl Material
s off
f 83/145/37 80/146/37 60/147/37 63/148/37 51/149/37
f 85/150/38 87/151/38 57/152/38 66/153/38 53/154/38
f 96/155/39 95/156/39 64/157/39 65/158/39
f 86/159/38 81/160/38 64/161/38 56/162/38
f 84/163/37 90/164/37 62/165/37 50/166/37
f 80/167/40 79/168/40 59/169/40 60/170/40
f 81/171/41 82/172/41 65/173/41 64/174/41
f 97/175/42 98/176/42 62/177/42 61/178/42
f 89/179/41 90/180/41 74/181/41 73/182/41
f 88/183/40 87/184/40 71/185/40 72/186/40
f 76/187/37 82/188/37 74/189/37 68/190/37
f 78/191/38 89/192/38 73/193/38 70/194/38
f 68/195/40 84/196/40 50/197/40 54/198/40 78/199/40 70/200/40 86/201/40 56/202/40 52/203/40 76/204/40
f 77/205/38 79/206/38 71/207/38 69/208/38
f 75/209/37 88/210/37 72/211/37 67/212/37
f 91/213/37 50/214/37 62/215/37 98/216/37
f 93/217/38 56/218/38 64/219/38 95/220/38
f 69/221/41 85/222/41 53/223/41 49/224/41 75/225/41 67/226/41 83/227/41 51/228/41 55/229/41 77/230/41
f 54/198/39 50/197/39 91/231/39 94/232/39
f 94/233/38 97/234/38 61/235/38 89/192/38 78/191/38 54/236/38
f 92/237/37 96/238/37 65/239/37 82/188/37 76/187/37 52/240/37
f 58/241/40 57/242/40 87/184/40 88/183/40
f 61/243/41 62/244/41 90/180/41 89/179/41
f 73/182/41 74/181/41 82/172/41 81/171/41
f 72/186/40 71/185/40 79/168/40 80/167/40
f 68/190/37 74/189/37 90/164/37 84/163/37
f 70/194/38 73/193/38 81/160/38 86/159/38
f 69/208/38 71/207/38 87/151/38 85/150/38
f 67/212/37 72/211/37 80/146/37 83/145/37
f 51/245/37 63/246/37 96/238/37 92/237/37
f 53/247/38 66/248/38 97/234/38 94/233/38
f 55/249/38 93/217/38 95/220/38 59/250/38 79/206/38 77/205/38
f 49/224/37 91/213/37 98/216/37 58/251/37 88/210/37 75/209/37
f 57/252/42 58/253/42 98/176/42 97/175/42 66/254/42
f 60/255/43 59/256/43 95/156/43 96/155/43 63/257/43
f 52/203/42 56/202/42 93/258/42 92/259/42
f 49/224/39 53/223/39 94/232/39 91/231/39
f 55/229/42 51/228/42 92/259/42 93/258/42
